<svg width="25" height="24" viewBox="0 0 25 24" fill="none" xmlns="http://www.w3.org/2000/svg">
<g id="SVG">
<path id="Vector" d="M6.18377 21.3698C5.87925 21.5373 5.53632 21.6226 5.18881 21.6172C4.84129 21.6118 4.50118 21.5159 4.202 21.339C3.90282 21.1622 3.65491 20.9103 3.48271 20.6084C3.3105 20.3065 3.21995 19.965 3.21997 19.6174V4.38201C3.21981 4.03441 3.31029 3.69277 3.48247 3.39081C3.65466 3.08884 3.9026 2.83699 4.20183 2.66011C4.50106 2.48322 4.84124 2.38741 5.18881 2.38214C5.53637 2.37686 5.87931 2.46229 6.18377 2.63001C9.89356 4.67001 16.2226 8.15201 20.0338 10.248C20.3476 10.4205 20.6093 10.6741 20.7915 10.9823C20.9738 11.2905 21.07 11.642 21.07 12C21.07 12.3581 20.9738 12.7096 20.7915 13.0178C20.6093 13.326 20.3476 13.5795 20.0338 13.752C16.2226 15.848 9.89356 19.3294 6.18377 21.3698Z" stroke="#C1B27D" stroke-width="2" stroke-linecap="round" stroke-linejoin="round"/>
</g>
</svg>
